<svg xmlns="http://www.w3.org/2000/svg" version="1.1" xmlns:xlink="http://www.w3.org/1999/xlink" xmlns:svgjs="http://svgjs.dev/svgjs" width="1500" height="458" viewBox="0 0 1500 458"><g transform="matrix(1,0,0,1,-0.9090911786807965,0.41908466001424927)"><svg viewBox="0 0 396 121" data-background-color="#008cba" preserveAspectRatio="xMidYMid meet" height="458" width="1500" xmlns="http://www.w3.org/2000/svg" xmlns:xlink="http://www.w3.org/1999/xlink"><g id="tight-bounds" transform="matrix(1,0,0,1,0.24000007117172117,-0.0662674570280899)"><svg viewBox="0 0 395.52 121.1325349140562" height="121.1325349140562" width="395.52"><g><svg viewBox="0 0 665.0859603815686 203.6902010436108" height="121.1325349140562" width="395.52"><g transform="matrix(1,0,0,1,0,19.855773452409935)"><svg viewBox="0 0 395.52 163.97865413879094" height="163.97865413879094" width="395.52"><g id="textblocktransform"><svg viewBox="0 0 395.52 163.97865413879094" height="163.97865413879094" width="395.52" id="textblock"><g><svg viewBox="0 0 395.52 106.46825760165673" height="106.46825760165673" width="395.52"><g transform="matrix(1,0,0,1,0,0)"><svg width="395.52" viewBox="2.0181819052480003 -32.55 122.771818094752 33.05" height="106.46825760165673" data-palette-color="#ffffff"><path d="M8-32.1L8-32.1Q9.45-32.1 10.83-32.18 12.2-32.25 13.7-32.3L13.7-32.3Q13.9-32.1 13.88-31.53 13.85-30.95 13.7-30.75L13.7-30.75Q13.4-30.75 12.6-30.68 11.8-30.6 11.1-30.45 10.4-30.3 10.3-30L10.3-30Q10.15-29.5 10.13-28.7 10.1-27.9 10.1-26.95L10.1-26.95Q10.1-26.8 10.1-26.65 10.1-26.5 10.1-26.35L10.1-26.35 10.1-17.8Q10.1-17.75 10.15-17.73 10.2-17.7 10.2-17.7L10.2-17.7Q12-17.65 13.9-17.6 15.8-17.55 17.85-17.55L17.85-17.55Q19.6-17.55 21.63-17.6 23.65-17.65 25.3-17.7L25.3-17.7Q25.3-17.7 25.35-17.75 25.4-17.8 25.4-17.85L25.4-17.85 25.4-26.35Q25.4-27.45 25.38-28.43 25.35-29.4 25.15-30L25.15-30Q25.1-30.3 24.38-30.45 23.65-30.6 22.88-30.68 22.1-30.75 21.8-30.75L21.8-30.75Q21.65-30.95 21.63-31.53 21.6-32.1 21.8-32.3L21.8-32.3Q23.3-32.25 24.73-32.18 26.15-32.1 27.55-32.1L27.55-32.1Q29-32.1 30.38-32.18 31.75-32.25 33.25-32.3L33.25-32.3Q33.45-32.1 33.43-31.53 33.4-30.95 33.25-30.75L33.25-30.75Q32.95-30.75 32.18-30.68 31.4-30.6 30.7-30.45 30-30.3 29.9-30L29.9-30Q29.7-29.4 29.68-28.43 29.65-27.45 29.65-26.35L29.65-26.35 29.65-5.8Q29.65-4.7 29.68-3.75 29.7-2.8 29.9-2.2L29.9-2.2Q30-1.95 30.7-1.75 31.4-1.55 32.18-1.48 32.95-1.4 33.25-1.4L33.25-1.4Q33.4-1.2 33.43-0.63 33.45-0.05 33.25 0.15L33.25 0.15Q31.75 0.05 30.38-0.03 29-0.1 27.55-0.1L27.55-0.1Q26.15-0.1 24.73-0.03 23.3 0.05 21.8 0.15L21.8 0.15Q21.6-0.05 21.63-0.63 21.65-1.2 21.8-1.4L21.8-1.4Q22.1-1.4 22.88-1.48 23.65-1.55 24.38-1.75 25.1-1.95 25.15-2.2L25.15-2.2Q25.35-2.8 25.38-3.75 25.4-4.7 25.4-5.8L25.4-5.8 25.4-15.5Q25.4-15.6 25.35-15.63 25.3-15.65 25.3-15.65L25.3-15.65Q23.6-15.7 21.68-15.78 19.75-15.85 17.85-15.85L17.85-15.85Q14.45-15.85 12.85-15.8 11.25-15.75 10.75-15.7 10.25-15.65 10.15-15.6L10.15-15.6Q10.1-15.55 10.1-15.53 10.1-15.5 10.1-15.5L10.1-15.5 10.1-5.8Q10.1-5.65 10.1-5.5 10.1-5.35 10.1-5.2L10.1-5.2Q10.1-4.25 10.13-3.48 10.15-2.7 10.3-2.2L10.3-2.2Q10.4-1.95 11.1-1.75 11.8-1.55 12.6-1.48 13.4-1.4 13.7-1.4L13.7-1.4Q13.85-1.2 13.88-0.63 13.9-0.05 13.7 0.15L13.7 0.15Q12.2 0.05 10.83-0.03 9.45-0.1 8-0.1L8-0.1Q6.6-0.1 5.15-0.03 3.7 0.05 2.2 0.15L2.2 0.15Q2-0.05 2.02-0.63 2.05-1.2 2.2-1.4L2.2-1.4Q2.5-1.4 3.3-1.48 4.1-1.55 4.83-1.75 5.55-1.95 5.6-2.2L5.6-2.2Q5.8-2.8 5.83-3.75 5.85-4.7 5.85-5.8L5.85-5.8 5.85-26.35Q5.85-27.45 5.83-28.43 5.8-29.4 5.6-30L5.6-30Q5.55-30.3 4.83-30.45 4.1-30.6 3.3-30.68 2.5-30.75 2.2-30.75L2.2-30.75Q2.05-30.95 2.02-31.53 2-32.1 2.2-32.3L2.2-32.3Q3.7-32.25 5.15-32.18 6.6-32.1 8-32.1ZM53.15-32.55L53.15-32.55Q56.4-32.55 59.27-31.35 62.15-30.15 64.35-27.93 66.55-25.7 67.82-22.68 69.1-19.65 69.1-16L69.1-16Q69.1-12.55 67.82-9.58 66.55-6.6 64.35-4.33 62.15-2.05 59.27-0.78 56.4 0.5 53.15 0.5L53.15 0.5Q49.95 0.5 47.07-0.7 44.2-1.9 42.02-4.13 39.85-6.35 38.6-9.38 37.35-12.4 37.35-16L37.35-16Q37.35-19.45 38.6-22.45 39.85-25.45 42.02-27.73 44.2-30 47.07-31.28 49.95-32.55 53.15-32.55ZM52.45-30.9L52.45-30.9Q49.7-30.9 47.75-29.68 45.8-28.45 44.57-26.45 43.35-24.45 42.77-22 42.2-19.55 42.2-17.1L42.2-17.1Q42.2-14.25 42.97-11.43 43.75-8.6 45.25-6.28 46.75-3.95 48.92-2.55 51.1-1.15 53.95-1.15L53.95-1.15Q56.7-1.15 58.65-2.38 60.6-3.6 61.85-5.65 63.1-7.7 63.67-10.18 64.25-12.65 64.25-15.1L64.25-15.1Q64.25-17.95 63.47-20.75 62.7-23.55 61.17-25.85 59.65-28.15 57.47-29.53 55.3-30.9 52.45-30.9ZM96.29-23.4L96.29-23.4Q96.29-20.45 94.94-18.23 93.59-16 91.17-14.78 88.74-13.55 85.54-13.55L85.54-13.55Q85.14-13.55 84.49-13.65 83.84-13.75 83.44-13.95L83.44-13.95Q83.34-14.05 83.04-14.33 82.74-14.6 82.74-15.05L82.74-15.05Q82.74-15.35 82.99-15.3L82.99-15.3Q83.39-15.2 83.84-15.08 84.29-14.95 84.84-14.95L84.84-14.95Q87.79-14.95 89.79-16.93 91.79-18.9 91.79-22.55L91.79-22.55Q91.79-26.2 89.79-28.4 87.79-30.6 83.74-30.6L83.74-30.6Q83.29-30.6 82.37-30.55 81.44-30.5 81.29-30.15L81.29-30.15Q81.09-29.7 81.07-28.63 81.04-27.55 81.04-26.45L81.04-26.45 81.04-5.65Q81.04-4.55 81.07-3.6 81.09-2.65 81.29-2.05L81.29-2.05Q81.39-1.8 82.09-1.6 82.79-1.4 83.57-1.33 84.34-1.25 84.64-1.25L84.64-1.25Q84.79-1.05 84.82-0.55 84.84-0.05 84.64 0.15L84.64 0.15Q83.14 0.05 81.77-0.03 80.39-0.1 78.94-0.1L78.94-0.1Q77.54-0.1 76.12-0.03 74.69 0.05 73.19 0.15L73.19 0.15Q72.99-0.05 73.02-0.55 73.04-1.05 73.19-1.25L73.19-1.25Q73.49-1.25 74.27-1.33 75.04-1.4 75.77-1.6 76.49-1.8 76.54-2.05L76.54-2.05Q76.74-2.65 76.77-3.6 76.79-4.55 76.79-5.65L76.79-5.65 76.79-26.5Q76.79-27.6 76.77-28.58 76.74-29.55 76.54-30.15L76.54-30.15Q76.49-30.45 75.77-30.6 75.04-30.75 74.27-30.83 73.49-30.9 73.19-30.9L73.19-30.9Q73.04-31.1 73.02-31.6 72.99-32.1 73.19-32.3L73.19-32.3Q74.69-32.25 76.12-32.18 77.54-32.1 78.94-32.1L78.94-32.1Q80.39-32.1 82.07-32.15 83.74-32.2 85.89-32.2L85.89-32.2Q88.49-32.2 90.87-31.18 93.24-30.15 94.77-28.2 96.29-26.25 96.29-23.4ZM105.49-32.1L105.49-32.1Q108.94-32.1 113.09-32.25 117.24-32.4 121.19-32.4L121.19-32.4Q121.44-30.55 121.84-29 122.24-27.45 122.59-25.8L122.59-25.8Q122.34-25.55 121.74-25.55L121.74-25.55Q121.09-25.55 121.04-25.9L121.04-25.9Q120.24-28.85 118.79-29.65 117.34-30.45 115.39-30.45L115.39-30.45 111.19-30.45Q110.89-30.45 110.09-30.43 109.29-30.4 108.59-30.3 107.89-30.2 107.79-29.95L107.79-29.95Q107.64-29.45 107.62-28.65 107.59-27.85 107.59-27L107.59-27Q107.59-26.65 107.59-26.45L107.59-26.45 107.59-17.35Q107.59-17.15 108.24-17.1 108.89-17.05 109.69-17.05L109.69-17.05 112.24-17.05Q113.99-17.05 114.97-17.15 115.94-17.25 116.39-17.6 116.84-17.95 117.09-18.65 117.34-19.35 117.64-20.55L117.64-20.55Q117.69-20.9 118.34-20.9L118.34-20.9Q118.94-20.9 119.19-20.65L119.19-20.65 119.19-11.45Q118.99-11.25 118.39-11.25L118.39-11.25Q117.79-11.25 117.64-11.6L117.64-11.6Q117.29-13 117.07-13.63 116.84-14.25 116.67-14.48 116.49-14.7 116.24-14.85L116.24-14.85Q115.99-15.05 115.09-15.13 114.19-15.2 113.12-15.23 112.04-15.25 111.09-15.25L111.09-15.25Q110.44-15.25 109.62-15.23 108.79-15.2 108.19-15.13 107.59-15.05 107.59-14.8L107.59-14.8 107.59-5.5Q107.59-5.4 107.59-5.2L107.59-5.2Q107.59-4.5 107.62-3.4 107.64-2.3 107.84-2.15L107.84-2.15Q108.34-1.8 109.07-1.73 109.79-1.65 111.34-1.65L111.34-1.65 113.69-1.65Q115.44-1.65 117.14-2 118.84-2.35 119.84-3L119.84-3Q120.99-3.7 121.64-5.03 122.29-6.35 122.89-7.9L122.89-7.9Q122.99-8.2 123.59-8.2L123.59-8.2Q124.49-8.2 124.79-7.9L124.79-7.9Q124.09-5.9 123.27-3.65 122.44-1.4 122.19 0.2L122.19 0.2Q118.24 0.2 114.34 0.1 110.44 0 105.54 0L105.54 0Q103.84 0 102.49 0.08 101.14 0.15 99.69 0.15L99.69 0.15Q99.49-0.05 99.52-0.55 99.54-1.05 99.69-1.25L99.69-1.25Q99.99-1.25 100.79-1.33 101.59-1.4 102.32-1.6 103.04-1.8 103.09-2.05L103.09-2.05Q103.29-2.65 103.32-3.6 103.34-4.55 103.34-5.65L103.34-5.65 103.34-26.5Q103.34-27.6 103.32-28.58 103.29-29.55 103.09-30.15L103.09-30.15Q103.04-30.45 102.32-30.6 101.59-30.75 100.79-30.83 99.99-30.9 99.69-30.9L99.69-30.9Q99.54-31.1 99.52-31.6 99.49-32.1 99.69-32.3L99.69-32.3Q101.19-32.25 102.64-32.18 104.09-32.1 105.49-32.1Z" opacity="1" transform="matrix(1,0,0,1,0,0)" fill="#ffffff" class="wordmark-text-0" data-fill-palette-color="primary" id="text-0"></path></svg></g></svg></g><g transform="matrix(1,0,0,1,19.77600000000001,131.60285798322545)"><svg viewBox="0 0 375.74399999999997 32.37579615556549" height="32.37579615556549" width="375.74399999999997"><g transform="matrix(1,0,0,1,0,0)"><svg width="375.74399999999997" viewBox="1.25 -36.84 436.86 37.650000000000006" height="32.37579615556549" data-palette-color="#ffffff"><path d="M25.56-33.54L25.56-25.61 22.61-25.61 21.9-30.2Q21.83-30.57 21.61-30.83 21.39-31.1 21.04-31.1L21.04-31.1 10.4-31.1 10.4-18.09 18.04-18.09Q18.38-18.09 18.65-18.42 18.92-18.75 18.95-18.99L18.95-18.99 19.41-22.51 21.9-22.51 21.9-11.25 19.41-11.25 18.95-14.75Q18.92-15.01 18.64-15.33 18.36-15.65 18.04-15.65L18.04-15.65 10.4-15.65 10.4-3.44Q10.4-3.08 10.66-2.73 10.91-2.39 11.45-2.34L11.45-2.34 14.79-2.15 14.79 0 1.66 0 1.66-2.15 4.3-2.34Q4.83-2.39 5.09-2.73 5.35-3.08 5.35-3.44L5.35-3.44 5.35-30.1Q5.35-30.47 5.09-30.82 4.83-31.18 4.3-31.2L4.3-31.2 1.25-31.4 1.25-33.54 25.56-33.54ZM52.54-12.01L52.54-12.01Q52.54-8.47 51.07-5.6 49.61-2.73 46.93-1.06 44.26 0.61 40.6 0.61L40.6 0.61Q36.96 0.61 34.3-1.05 31.64-2.71 30.2-5.57 28.76-8.42 28.76-12.01L28.76-12.01Q28.76-15.58 30.21-18.46 31.66-21.34 34.36-23.02 37.06-24.71 40.74-24.71L40.74-24.71Q44.48-24.71 47.12-23 49.75-21.29 51.14-18.41 52.54-15.53 52.54-12.01ZM47.34-12.06L47.34-12.06Q47.34-14.79 46.62-17.16 45.9-19.53 44.42-21 42.94-22.46 40.7-22.46L40.7-22.46Q38.38-22.46 36.9-21 35.42-19.53 34.71-17.16 34.01-14.79 34.01-12.06L34.01-12.06Q34.01-9.35 34.73-6.97 35.45-4.59 36.92-3.13 38.4-1.66 40.65-1.66L40.65-1.66Q42.94-1.66 44.42-3.13 45.9-4.59 46.62-6.96 47.34-9.33 47.34-12.06ZM73.29-23.95L73.29-18.99 71.33-18.99Q70.87-19.56 70.22-19.96 69.58-20.36 68.65-20.36L68.65-20.36Q67.45-20.36 66.19-19.53 64.94-18.7 63.64-17.26L63.64-17.26 63.64-3.2Q63.64-2.15 64.69-2.1L64.69-2.1 67.99-1.95 67.99 0 55.49 0 55.49-1.9 57.95-2.1Q58.39-2.15 58.7-2.44 59-2.73 59-3.2L59-3.2 59-20.56 55.39-20.56 55.39-22.19 61.59-24.1 63.64-24.1 63.64-19.65Q64.37-20.46 65.47-21.66 66.57-22.85 67.82-23.78 69.06-24.71 70.23-24.71L70.23-24.71Q71.02-24.71 71.92-24.46 72.82-24.22 73.29-23.95L73.29-23.95ZM120.4-9.4L120.4-9.4Q120.4-6.88 119.05-4.54 117.69-2.2 114.77-0.7 111.86 0.81 107.14 0.81L107.14 0.81Q104.46 0.81 102.46 0.34 100.45-0.12 99.36-0.59 98.26-1.05 98.26-1.05L98.26-1.05 98.26-9.91 101.41-9.91 102.07-4.25Q102.11-3.96 102.38-3.61 102.65-3.27 102.9-3.15L102.9-3.15Q103.02-3.13 104.32-2.56 105.63-2 107.95-2L107.95-2Q111.15-2 113.22-3.56 115.3-5.13 115.3-7.91L115.3-7.91Q115.3-9.42 114.46-10.56 113.61-11.69 112.27-12.57 110.93-13.45 109.4-14.17 107.88-14.89 106.51-15.55L106.51-15.55Q104.46-16.53 102.7-17.64 100.94-18.75 99.87-20.39 98.79-22.02 98.79-24.56L98.79-24.56Q98.79-27.54 100.31-29.74 101.82-31.93 104.43-33.14 107.05-34.35 110.34-34.35L110.34-34.35Q113.03-34.35 115.08-33.83 117.13-33.3 118.72-32.79L118.72-32.79 119.16-32.64 119.16-24.85 116.3-24.85 115.54-29.64Q115.49-29.98 115.24-30.14 114.98-30.3 114.76-30.52L114.76-30.52Q114.57-30.66 113.55-31.15 112.54-31.64 110.41-31.64L110.41-31.64Q107.41-31.64 105.68-29.97 103.95-28.3 103.95-25.76L103.95-25.76Q103.95-23.46 105.74-21.95 107.53-20.43 110.9-19.14L110.9-19.14Q115.44-17.43 117.92-15.3 120.4-13.16 120.4-9.4ZM133.24-32.35L133.24-32.35Q133.24-31.08 132.36-30.16 131.48-29.25 130.21-29.25L130.21-29.25Q128.94-29.25 128.03-30.16 127.11-31.08 127.11-32.35L127.11-32.35Q127.11-33.64 128.03-34.52 128.94-35.4 130.21-35.4L130.21-35.4Q131.48-35.4 132.36-34.52 133.24-33.64 133.24-32.35ZM135.8-1.95L135.8 0 124.06 0 124.06-1.95 126.5-2.1Q127.55-2.17 127.55-3.2L127.55-3.2 127.55-21.04 124.11-21.04 124.11-22.8 130.21-24.71 132.19-24.71 132.19-3.2Q132.19-2.73 132.49-2.44 132.8-2.15 133.24-2.1L133.24-2.1 135.8-1.95ZM151.01-1.95L151.01 0 138.85 0 138.85-1.95 141.51-2.1Q141.86-2.1 142.23-2.47 142.61-2.83 142.61-3.15L142.61-3.15 142.61-33.25 138.8-33.25 138.8-34.91 145.2-36.84 147.25-36.84 147.25-3.15Q147.25-2.83 147.62-2.47 147.98-2.1 148.3-2.1L148.3-2.1 151.01-1.95ZM175.15-5.54L175.15-2.49Q173.05-1.2 170.62-0.29 168.2 0.61 165.66 0.61L165.66 0.61Q162.63 0.61 159.98-0.74 157.33-2.1 155.7-4.86 154.06-7.62 154.06-11.79L154.06-11.79Q154.06-15.7 155.57-18.6 157.09-21.51 159.75-23.11 162.41-24.71 165.8-24.71L165.8-24.71Q170.47-24.71 172.81-21.81 175.15-18.92 175.15-14.45L175.15-14.45Q175.15-14.21 175.15-13.81 175.15-13.4 175.1-13.06L175.1-13.06 158.89-13.06Q158.89-11.16 159.3-9.27 159.7-7.37 160.65-5.83 161.6-4.3 163.21-3.37 164.83-2.44 167.24-2.44L167.24-2.44Q169.39-2.44 171.43-3.43 173.47-4.42 175.15-5.54L175.15-5.54ZM159.16-15.31L170.15-15.31 170.15-16.41Q170.15-18.87 168.96-20.56 167.78-22.24 165.29-22.24L165.29-22.24Q162.82-22.24 161.09-20.39 159.36-18.53 159.16-15.31L159.16-15.31ZM204.2-1.95L204.2 0 193.17 0 193.17-1.95 195.27-2.1Q195.71-2.15 196.01-2.44 196.32-2.73 196.32-3.2L196.32-3.2 196.32-16.21Q196.32-18.58 195.22-19.81 194.12-21.04 191.51-21.04L191.51-21.04Q190.09-21.04 188.69-20.64 187.28-20.24 186.02-19.6L186.02-19.6 186.02-3.2Q186.02-2.17 187.06-2.1L187.06-2.1 189.16-1.95 189.16 0 177.86 0 177.86-1.95 180.3-2.1Q181.35-2.17 181.35-3.2L181.35-3.2 181.35-20.56 177.86-20.56 177.86-22.19 183.96-24.1 186.02-24.1 186.02-21.61Q188.11-22.8 190.32-23.75 192.53-24.71 194.27-24.71L194.27-24.71Q197.54-24.71 199.25-22.67 200.96-20.63 200.96-16.99L200.96-16.99 200.96-3.2Q200.96-2.73 201.26-2.44 201.57-2.15 202.01-2.1L202.01-2.1 204.2-1.95ZM221.85-3.05L221.85-3.05 221.85-1.05Q221.85-1.05 220.91-0.63 219.97-0.22 218.45 0.2 216.92 0.61 215.11 0.61L215.11 0.61Q212.31 0.61 211.02-0.72 209.74-2.05 209.74-5L209.74-5 209.74-21.61 206.54-21.61 206.54-23.24 209.96-24.85 212.21-30.15 214.41-30.15 214.41-24.1 221.46-24.1 221.46-21.61 214.41-21.61 214.41-7.64Q214.41-4.66 215.41-3.43 216.41-2.2 218.41-2.2L218.41-2.2Q219.87-2.2 220.86-2.62 221.85-3.05 221.85-3.05ZM268.8-9.4L268.8-9.4Q268.8-6.88 267.44-4.54 266.09-2.2 263.17-0.7 260.25 0.81 255.54 0.81L255.54 0.81Q252.85 0.81 250.85 0.34 248.85-0.12 247.75-0.59 246.65-1.05 246.65-1.05L246.65-1.05 246.65-9.91 249.8-9.91 250.46-4.25Q250.51-3.96 250.78-3.61 251.05-3.27 251.29-3.15L251.29-3.15Q251.41-3.13 252.72-2.56 254.03-2 256.34-2L256.34-2Q259.54-2 261.62-3.56 263.69-5.13 263.69-7.91L263.69-7.91Q263.69-9.42 262.85-10.56 262.01-11.69 260.67-12.57 259.32-13.45 257.8-14.17 256.27-14.89 254.9-15.55L254.9-15.55Q252.85-16.53 251.1-17.64 249.34-18.75 248.26-20.39 247.19-22.02 247.19-24.56L247.19-24.56Q247.19-27.54 248.7-29.74 250.22-31.93 252.83-33.14 255.44-34.35 258.74-34.35L258.74-34.35Q261.42-34.35 263.47-33.83 265.52-33.3 267.11-32.79L267.11-32.79 267.55-32.64 267.55-24.85 264.69-24.85 263.94-29.64Q263.89-29.98 263.63-30.14 263.38-30.3 263.16-30.52L263.16-30.52Q262.96-30.66 261.95-31.15 260.93-31.64 258.81-31.64L258.81-31.64Q255.81-31.64 254.07-29.97 252.34-28.3 252.34-25.76L252.34-25.76Q252.34-23.46 254.14-21.95 255.93-20.43 259.3-19.14L259.3-19.14Q263.84-17.43 266.32-15.3 268.8-13.16 268.8-9.4ZM298.14-1.95L298.14 0 290.2 0 290.2-2.86Q289.35-2.2 288.03-1.39 286.71-0.59 285.2 0.01 283.69 0.61 282.2 0.61L282.2 0.61Q278.97 0.61 277.13-1.33 275.29-3.27 275.29-7.5L275.29-7.5 275.29-21.04 271.8-21.04 271.8-22.75 277.95-24.71 279.95-24.71 279.95-8.45Q279.95-5.79 281.04-4.3 282.12-2.81 284.78-2.81L284.78-2.81Q286.32-2.81 287.81-3.33 289.3-3.86 290.2-4.3L290.2-4.3 290.2-21.04 286.69-21.04 286.69-22.75 292.79-24.71 294.84-24.71 294.84-3.2Q294.84-2.73 295.17-2.44 295.5-2.15 295.94-2.1L295.94-2.1 298.14-1.95ZM318.64-33.84L318.64-33.84Q318.64-32.84 318.14-32.26 317.64-31.69 317.08-31.45 316.52-31.2 316.32-31.15L316.32-31.15Q316.25-31.23 315.56-31.71 314.86-32.2 313.99-32.81 313.13-33.42 312.46-33.9 311.78-34.38 311.74-34.4L311.74-34.4Q310.66-33.84 309.72-32.13 308.78-30.42 308.78-26.9L308.78-26.9 308.78-23.71 314.98-23.71 314.98-21.14 308.78-21.14 308.78-3.2Q308.78-2.73 309.09-2.43 309.39-2.12 309.83-2.1L309.83-2.1 312.78-1.95 312.78 0 300.63 0 300.63-1.95 303.09-2.1Q303.53-2.15 303.84-2.44 304.14-2.73 304.14-3.2L304.14-3.2 304.14-21.14 300.94-21.14 300.94-22.9 304.14-23.8Q304.14-26.27 304.52-27.89 304.9-29.52 305.83-31.3L305.83-31.3Q307.29-34.13 309.6-35.49 311.91-36.84 314.35-36.84L314.35-36.84Q316.47-36.84 317.56-35.95 318.64-35.06 318.64-33.84ZM334.95-33.84L334.95-33.84Q334.95-32.84 334.45-32.26 333.95-31.69 333.39-31.45 332.83-31.2 332.63-31.15L332.63-31.15Q332.56-31.23 331.86-31.71 331.17-32.2 330.3-32.81 329.43-33.42 328.76-33.9 328.09-34.38 328.04-34.4L328.04-34.4Q326.97-33.84 326.03-32.13 325.09-30.42 325.09-26.9L325.09-26.9 325.09-23.71 331.29-23.71 331.29-21.14 325.09-21.14 325.09-3.2Q325.09-2.73 325.39-2.43 325.7-2.12 326.14-2.1L326.14-2.1 329.09-1.95 329.09 0 316.93 0 316.93-1.95 319.4-2.1Q319.84-2.15 320.14-2.44 320.45-2.73 320.45-3.2L320.45-3.2 320.45-21.14 317.25-21.14 317.25-22.9 320.45-23.8Q320.45-26.27 320.83-27.89 321.21-29.52 322.13-31.3L322.13-31.3Q323.6-34.13 325.9-35.49 328.21-36.84 330.65-36.84L330.65-36.84Q332.78-36.84 333.86-35.95 334.95-35.06 334.95-33.84ZM354.6-5.54L354.6-2.49Q352.5-1.2 350.07-0.29 347.64 0.61 345.1 0.61L345.1 0.61Q342.08 0.61 339.43-0.74 336.78-2.1 335.14-4.86 333.51-7.62 333.51-11.79L333.51-11.79Q333.51-15.7 335.02-18.6 336.53-21.51 339.2-23.11 341.86-24.71 345.25-24.71L345.25-24.71Q349.91-24.71 352.26-21.81 354.6-18.92 354.6-14.45L354.6-14.45Q354.6-14.21 354.6-13.81 354.6-13.4 354.55-13.06L354.55-13.06 338.34-13.06Q338.34-11.16 338.74-9.27 339.15-7.37 340.1-5.83 341.05-4.3 342.66-3.37 344.27-2.44 346.69-2.44L346.69-2.44Q348.84-2.44 350.88-3.43 352.92-4.42 354.6-5.54L354.6-5.54ZM338.61-15.31L349.6-15.31 349.6-16.41Q349.6-18.87 348.41-20.56 347.23-22.24 344.74-22.24L344.74-22.24Q342.27-22.24 340.54-20.39 338.81-18.53 338.61-15.31L338.61-15.31ZM375.35-23.95L375.35-18.99 373.4-18.99Q372.93-19.56 372.29-19.96 371.64-20.36 370.71-20.36L370.71-20.36Q369.52-20.36 368.26-19.53 367-18.7 365.71-17.26L365.71-17.26 365.71-3.2Q365.71-2.15 366.76-2.1L366.76-2.1 370.05-1.95 370.05 0 357.55 0 357.55-1.9 360.02-2.1Q360.46-2.15 360.76-2.44 361.07-2.73 361.07-3.2L361.07-3.2 361.07-20.56 357.46-20.56 357.46-22.19 363.66-24.1 365.71-24.1 365.71-19.65Q366.44-20.46 367.54-21.66 368.64-22.85 369.88-23.78 371.13-24.71 372.3-24.71L372.3-24.71Q373.08-24.71 373.98-24.46 374.89-24.22 375.35-23.95L375.35-23.95ZM398.66-5.54L398.66-2.49Q396.56-1.2 394.13-0.29 391.71 0.61 389.17 0.61L389.17 0.61Q386.14 0.61 383.49-0.74 380.84-2.1 379.21-4.86 377.57-7.62 377.57-11.79L377.57-11.79Q377.57-15.7 379.08-18.6 380.6-21.51 383.26-23.11 385.92-24.71 389.31-24.71L389.31-24.71Q393.98-24.71 396.32-21.81 398.66-18.92 398.66-14.45L398.66-14.45Q398.66-14.21 398.66-13.81 398.66-13.4 398.61-13.06L398.61-13.06 382.4-13.06Q382.4-11.16 382.81-9.27 383.21-7.37 384.16-5.83 385.11-4.3 386.73-3.37 388.34-2.44 390.75-2.44L390.75-2.44Q392.9-2.44 394.94-3.43 396.98-4.42 398.66-5.54L398.66-5.54ZM382.67-15.31L393.66-15.31 393.66-16.41Q393.66-18.87 392.47-20.56 391.29-22.24 388.8-22.24L388.8-22.24Q386.33-22.24 384.6-20.39 382.87-18.53 382.67-15.31L382.67-15.31ZM419.41-23.95L419.41-18.99 417.46-18.99Q417-19.56 416.35-19.96 415.7-20.36 414.77-20.36L414.77-20.36Q413.58-20.36 412.32-19.53 411.06-18.7 409.77-17.26L409.77-17.26 409.77-3.2Q409.77-2.15 410.82-2.1L410.82-2.1 414.12-1.95 414.12 0 401.62 0 401.62-1.9 404.08-2.1Q404.52-2.15 404.83-2.44 405.13-2.73 405.13-3.2L405.13-3.2 405.13-20.56 401.52-20.56 401.52-22.19 407.72-24.1 409.77-24.1 409.77-19.65Q410.5-20.46 411.6-21.66 412.7-22.85 413.94-23.78 415.19-24.71 416.36-24.71L416.36-24.71Q417.14-24.71 418.05-24.46 418.95-24.22 419.41-23.95L419.41-23.95ZM438.11-7.25L438.11-7.25Q438.11-3.56 435.57-1.48 433.03 0.61 428.57 0.61L428.57 0.61Q426.27 0.61 424.33 0.13 422.39-0.34 421.63-0.66L421.63-0.66 421.63-7.3 424.17-7.3 424.78-3.05Q425.54-2.56 426.65-2.11 427.76-1.66 429.22-1.66L429.22-1.66Q431.37-1.66 432.55-2.86 433.72-4.05 433.72-5.54L433.72-5.54Q433.72-7.52 432.3-8.53 430.89-9.55 428.27-10.79L428.27-10.79 427.61-11.11Q424.88-12.4 423.43-13.81 421.97-15.21 421.97-17.46L421.97-17.46Q421.97-20.8 424.32-22.75 426.66-24.71 430.98-24.71L430.98-24.71Q433.18-24.71 434.9-24.3 436.62-23.9 437.38-23.56L437.38-23.56 437.38-17.65 434.77-17.65 434.38-21.14Q433.84-21.56 432.79-21.92 431.74-22.29 430.57-22.29L430.57-22.29Q428.52-22.29 427.52-21.35 426.52-20.41 426.52-18.95L426.52-18.95Q426.52-17.26 427.72-16.27 428.93-15.28 432.11-13.84L432.11-13.84Q434.72-12.65 436.41-11.17 438.11-9.69 438.11-7.25Z" opacity="1" transform="matrix(1,0,0,1,0,0)" fill="#ffffff" class="slogan-text-1" data-fill-palette-color="secondary" id="text-1"></path></svg></g></svg></g></svg></g></svg></g><g transform="matrix(1,0,0,1,420.6546003815687,0)"><svg viewBox="0 0 244.43135999999998 203.6902010436108" height="203.6902010436108" width="244.43135999999998"><g><svg xmlns="http://www.w3.org/2000/svg" xmlns:xlink="http://www.w3.org/1999/xlink" version="1.1" x="0" y="0" viewBox="2 7.0009999999999994 59.99956554622561 49.999" enable-background="new 0 0 64 64" xml:space="preserve" height="203.6902010436108" width="244.43135999999998" class="icon-icon-0" data-fill-palette-color="accent" id="icon-0"><g fill="#ffffff" data-fill-palette-color="accent"><circle cx="7.571" cy="11.586" r="4.6" fill="#ffffff" data-fill-palette-color="accent"></circle><path d="M5.121 39.25c0.299 0.217 0.645 0.318 0.985 0.318 0.525 0 1.042-0.242 1.372-0.701l5.618-7.802c0.384-0.533 0.424-1.241 0.101-1.814l-4.153-7.386c-0.458-0.813-1.487-1.102-2.3-0.645-0.813 0.457-1.102 1.487-0.645 2.3l3.626 6.447-4.988 6.927C4.192 37.65 4.364 38.705 5.121 39.25z" fill="#ffffff" data-fill-palette-color="accent"></path><path d="M4.861 54.754c0 1.24 1.006 2.246 2.247 2.246 1.239 0 2.245-1.006 2.245-2.246v-0.686l-4.492-5.477V54.754z" fill="#ffffff" data-fill-palette-color="accent"></path><path d="M9.154 29.934l-3.476-6.177c-0.586-1.044-0.215-2.371 0.828-2.957 0.325-0.183 0.693-0.279 1.063-0.279 0.784 0 1.51 0.425 1.894 1.107l3.225 5.732v-2.266c0-3.185-2.405-5.79-5.345-5.79C4.405 19.305 2 21.911 2 25.095v13.743h2.171c-0.343-0.697-0.31-1.553 0.175-2.227L9.154 29.934z" fill="#ffffff" data-fill-palette-color="accent"></path><polygon points="12.688,32.458 8.095,38.838 12.688,38.838  " fill="#ffffff" data-fill-palette-color="accent"></polygon><path d="M9.354 45.92v-6.754H7.866c0 0-1.296 1.502-3.005 0.932v6.625c0 0.518 0.18 1.02 0.507 1.422l6.567 8.031C12.38 56.719 13.025 57 13.676 57c0.5 0 1.004-0.166 1.421-0.508 0.96-0.785 1.103-2.199 0.317-3.16L9.354 45.92z" fill="#ffffff" data-fill-palette-color="accent"></path><circle cx="53.65" cy="11.586" r="4.6" fill="#ffffff" data-fill-palette-color="accent"></circle><path d="M51.2 39.25c0.298 0.217 0.644 0.318 0.985 0.318 0.524 0 1.041-0.242 1.372-0.701l5.616-7.802c0.385-0.533 0.425-1.241 0.103-1.814l-4.154-7.386c-0.458-0.813-1.487-1.102-2.3-0.645s-1.102 1.487-0.645 2.3l3.627 6.447-4.989 6.927C50.271 37.65 50.442 38.705 51.2 39.25z" fill="#ffffff" data-fill-palette-color="accent"></path><path d="M50.939 54.754c0 1.24 1.007 2.246 2.247 2.246s2.245-1.006 2.245-2.246v-0.686l-4.492-5.477V54.754z" fill="#ffffff" data-fill-palette-color="accent"></path><path d="M55.232 29.934l-3.475-6.177c-0.587-1.044-0.216-2.371 0.827-2.957 0.326-0.183 0.694-0.279 1.063-0.279 0.784 0 1.51 0.425 1.895 1.107l3.225 5.732v-2.266c0-3.185-2.405-5.79-5.346-5.79-2.938 0-5.343 2.605-5.343 5.79v13.743h2.17c-0.342-0.697-0.31-1.553 0.175-2.227L55.232 29.934z" fill="#ffffff" data-fill-palette-color="accent"></path><polygon points="58.768,32.458 54.174,38.838 58.768,38.838  " fill="#ffffff" data-fill-palette-color="accent"></polygon><path d="M61.492 53.332l-6.061-7.412v-6.754h-1.487c0 0-1.295 1.502-3.005 0.932v6.625c0 0.518 0.18 1.02 0.508 1.422l6.566 8.031C58.458 56.719 59.104 57 59.755 57c0.499 0 1.003-0.166 1.421-0.508C62.136 55.707 62.277 54.293 61.492 53.332z" fill="#ffffff" data-fill-palette-color="accent"></path><rect x="23.956" y="35.646" width="23.521" height="2.184" fill="#ffffff" data-fill-palette-color="accent"></rect><polygon points="13.414,37.83 22.87,37.83 22.87,35.646 13.414,33.006  " fill="#ffffff" data-fill-palette-color="accent"></polygon><polygon points="27.068,30.287 31.73,30.287 31.73,23.348 38.742,23.348 38.742,18.558 31.73,18.558 31.73,11.621 27.068,11.621    27.068,18.558 20.075,18.558 20.075,23.348 27.068,23.348  " fill="#ffffff" data-fill-palette-color="accent"></polygon></g></svg></g></svg></g></svg></g><defs></defs></svg><rect width="395.52" height="121.1325349140562" fill="none" stroke="none" visibility="hidden"></rect></g></svg></g></svg>